<svg xmlns="http://www.w3.org/2000/svg" width="1000" height="600" viewBox="0 0 1000 600">
  <defs>
    <marker id="arrow" markerWidth="10" markerHeight="10" refX="10" refY="3" orient="auto" markerUnits="strokeWidth">
      <path d="M0,0 L10,3 L0,6 Z" fill="#000" />
    </marker>
  </defs>

  <rect x="20" y="420" width="250" height="80" fill="#f2f2f2" stroke="#000" stroke-width="2" />
  <text x="145" y="465" font-family="Arial, sans-serif" font-size="18" text-anchor="middle">Client</text>

  <rect x="320" y="410" width="320" height="100" fill="#f2f2f2" stroke="#000" stroke-width="2" />
  <text x="480" y="450" font-family="Arial, sans-serif" font-size="16" text-anchor="middle">Envoy</text>
  <text x="480" y="470" font-family="Arial, sans-serif" font-size="14" text-anchor="middle">listen 10000, admin 9901</text>

  <rect x="700" y="410" width="260" height="100" fill="#f2f2f2" stroke="#000" stroke-width="2" />
  <text x="830" y="465" font-family="Arial, sans-serif" font-size="16" text-anchor="middle">CloudWatch Logs</text>

  <rect x="360" y="260" width="280" height="80" fill="#f2f2f2" stroke="#000" stroke-width="2" />
  <text x="500" y="300" font-family="Arial, sans-serif" font-size="14" text-anchor="middle">Shared Volume</text>
  <text x="500" y="320" font-family="Arial, sans-serif" font-size="12" text-anchor="middle">/etc/envoy/dynamic</text>

  <rect x="40" y="80" width="280" height="90" fill="#f2f2f2" stroke="#000" stroke-width="2" />
  <text x="180" y="120" font-family="Arial, sans-serif" font-size="14" text-anchor="middle">S3 Bucket</text>
  <text x="180" y="140" font-family="Arial, sans-serif" font-size="12" text-anchor="middle">envoy-file-config</text>

  <rect x="370" y="80" width="240" height="90" fill="#f2f2f2" stroke="#000" stroke-width="2" />
  <text x="490" y="120" font-family="Arial, sans-serif" font-size="14" text-anchor="middle">SQS Queue</text>
  <text x="490" y="140" font-family="Arial, sans-serif" font-size="12" text-anchor="middle">envoy-config-events</text>

  <rect x="680" y="80" width="280" height="90" fill="#f2f2f2" stroke="#000" stroke-width="2" />
  <text x="820" y="120" font-family="Arial, sans-serif" font-size="14" text-anchor="middle">s3-sync (aws-cli)</text>

  <!-- Arrows -->
  <line x1="270" y1="460" x2="320" y2="460" stroke="#000" stroke-width="2" marker-end="url(#arrow)" />
  <line x1="640" y1="460" x2="700" y2="460" stroke="#000" stroke-width="2" marker-end="url(#arrow)" />

  <line x1="520" y1="340" x2="520" y2="410" stroke="#000" stroke-width="2" marker-end="url(#arrow)" />
  <line x1="820" y1="170" x2="520" y2="260" stroke="#000" stroke-width="2" marker-end="url(#arrow)" />

  <line x1="320" y1="125" x2="370" y2="125" stroke="#000" stroke-width="2" marker-end="url(#arrow)" />
  <line x1="610" y1="125" x2="680" y2="125" stroke="#000" stroke-width="2" marker-end="url(#arrow)" />
  <line x1="820" y1="95" x2="320" y2="95" stroke="#000" stroke-width="2" marker-end="url(#arrow)" />

  <text x="345" y="110" font-family="Arial, sans-serif" font-size="12">event</text>
  <text x="645" y="110" font-family="Arial, sans-serif" font-size="12">poll</text>
  <text x="560" y="90" font-family="Arial, sans-serif" font-size="12">sync</text>
</svg>
